PathFileType	4	(X/Y/Z)	C:/Users/opensim2020/Desktop/walking_exp_matlab/subject06_walking15_straight_03.trc	
DataRate	CameraRate	NumFrames	NumMarkers	Units	OrigDataRate	OrigDataStartFrame	OrigNumFrames	
100.00	100.00	4	47	mm	100.00	2185	193	
Frame#	Time	LFHD			RFHD			LBHD			RBHD			C7			T10			CLAV			STRN			RBAK			LSHO			LUPA			LELB			LFRM			LWRA			LWRB			LFIN			RSHO			RUPA			RELB			RFRM			RWRA			RWRB			RFIN			LASI			RASI			LPSI			RPSI			LTHI			LKNE			LTIB			LANK			LHEE			LTOE			RTHI			RKNE			RTIB			RANK			RHEE			RTOE			*39			*40			*41			*42			*43			*44			*45			*46			
		X1	Y1	Z1	X2	Y2	Z2	X3	Y3	Z3	X4	Y4	Z4	X5	Y5	Z5	X6	Y6	Z6	X7	Y7	Z7	X8	Y8	Z8	X9	Y9	Z9	X10	Y10	Z10	X11	Y11	Z11	X12	Y12	Z12	X13	Y13	Z13	X14	Y14	Z14	X15	Y15	Z15	X16	Y16	Z16	X17	Y17	Z17	X18	Y18	Z18	X19	Y19	Z19	X20	Y20	Z20	X21	Y21	Z21	X22	Y22	Z22	X23	Y23	Z23	X24	Y24	Z24	X25	Y25	Z25	X26	Y26	Z26	X27	Y27	Z27	X28	Y28	Z28	X29	Y29	Z29	X30	Y30	Z30	X31	Y31	Z31	X32	Y32	Z32	X33	Y33	Z33	X34	Y34	Z34	X35	Y35	Z35	X36	Y36	Z36	X37	Y37	Z37	X38	Y38	Z38	X39	Y39	Z39	X40	Y40	Z40	X41	Y41	Z41	X42	Y42	Z42	X43	Y43	Z43	X44	Y44	Z44	X45	Y45	Z45	X46	Y46	Z46	X47	Y47	Z47	

49	0.480	1322.72693	-621.71265	1653.67822	1454.54431	-619.52374	1648.02673	1327.02612	-757.19617	1604.38440	1456.52979	-753.17291	1603.96118	1385.72644	-764.13104	1452.51624	1402.04614	-822.81445	1127.41809	1392.48389	-660.28918	1366.66296	1390.83472	-635.52502	1189.71216	1463.35181	-853.03168	1291.35974	1228.89551	-705.98041	1399.59485	1153.52087	-670.22919	1203.20935	1136.88733	-640.53033	1094.39905	1117.57898	-547.70172	975.66534	1163.28967	-438.88614	910.24573	1126.07959	-486.56909	872.99469	1124.85010	-407.86337	829.09888	1550.39758	-709.76239	1407.08179	1639.93176	-783.14893	1220.82739	1654.02881	-795.47577	1098.99976	1674.03284	-802.57635	979.19867	1648.75391	-767.04187	831.37268	1685.43530	-822.28400	842.44336	1690.19580	-800.16449	761.27039	1297.57117	-651.47260	957.48846	1518.86108	-652.00671	969.32764	1328.01697	-809.05316	991.68463	1496.09753	-803.03101	992.86542	1251.84851	-752.34485	649.02258	1276.64221	-781.00024	486.77588	1291.04724	-855.07477	239.17717	1344.95251	-881.32025	70.55788	1390.85620	-923.69183	59.56406	1342.88000	-740.43182	39.69170	1590.17139	-632.05396	646.36450	1568.40710	-582.20508	530.57001	1563.98572	-621.20551	270.05222	1521.86707	-631.33911	84.27258	1471.03943	-664.01062	60.10709	1544.18103	-484.03748	45.31304	1381.98254	-719.34906	1698.36267																					 
50	0.490	1323.51587	-612.68036	1652.58337	1455.32861	-610.79559	1646.72693	1327.46204	-748.16370	1603.27417	1456.99353	-744.46649	1602.65979	1385.87402	-754.72565	1451.24854	1401.92603	-814.00006	1126.09460	1392.84265	-651.34375	1365.48193	1390.97327	-626.53680	1188.50977	1463.06177	-844.33209	1290.08789	1229.22241	-696.70764	1398.49231	1153.63391	-659.91742	1202.55005	1136.84229	-629.21790	1093.99353	1117.98779	-533.33179	977.86237	1163.95959	-422.39941	916.38989	1127.07959	-468.73032	877.30811	1126.27393	-388.67953	835.90436	1550.71118	-701.29498	1405.69128	1639.72937	-775.80548	1219.73804	1653.72095	-788.95673	1097.99292	1673.99780	-796.79938	978.28107	1649.19543	-762.21466	830.12421	1685.54895	-817.63245	841.71021	1690.57275	-796.09894	760.31238	1297.88806	-642.50903	956.03741	1518.85449	-643.21063	968.07275	1328.24658	-800.29791	990.38098	1496.46313	-794.03314	991.59467	1252.29089	-745.11182	647.86255	1277.23364	-775.23883	485.77811	1291.41125	-852.11072	239.04408	1345.34326	-880.63885	70.83525	1391.26428	-923.29401	60.08998	1343.04358	-740.07391	39.61065	1590.44849	-625.07941	644.24481	1568.13879	-574.43268	528.82233	1563.63647	-601.74091	267.45697	1521.99255	-601.95886	81.31701	1470.90515	-633.16113	56.58150	1544.08765	-453.06039	45.95811	1382.64893	-710.50049	1697.16663																					 
51	0.500	1324.38049	-603.47766	1651.39832	1456.20203	-602.05377	1645.32532	1327.91589	-739.06641	1602.00562	1457.44189	-735.70612	1601.22314	1386.55066	-746.24402	1450.25208	1401.94055	-804.94037	1124.74438	1393.18689	-642.31818	1364.13696	1391.19995	-617.41052	1187.16174	1462.82153	-835.37292	1288.59277	1229.64111	-687.34717	1397.23804	1153.79468	-649.75830	1201.71069	1136.86182	-618.02142	1093.45471	1118.08887	-519.48907	979.96216	1164.30347	-406.38507	922.40717	1128.08496	-451.37845	881.62695	1127.66504	-370.05887	842.87158	1551.11011	-692.64166	1404.22229	1639.61536	-768.38000	1218.55969	1653.74524	-781.95020	1096.95117	1674.04651	-790.96759	977.32294	1649.72290	-757.08716	828.79742	1685.73938	-812.66827	840.85107	1690.93408	-791.73242	759.24609	1297.48633	-634.26123	954.39374	1518.85742	-634.10303	966.69836	1328.49536	-791.44788	988.98657	1496.79077	-785.29803	990.38934	1252.65527	-737.80231	646.65106	1277.81116	-769.45990	484.82632	1291.81250	-849.41797	238.84862	1345.69348	-880.07953	71.16651	1391.63574	-922.89600	60.66775	1343.27856	-739.72913	39.52031	1590.54993	-617.95929	642.13110	1567.52625	-566.87524	526.72528	1563.36621	-582.73206	265.22742	1522.39783	-572.94128	79.22965	1471.43018	-603.17181	54.51009	1544.42236	-423.25519	47.03405	1383.28760	-701.50500	1695.83643																					 
52	0.510	1325.27917	-594.27295	1650.09802	1457.18469	-593.23993	1643.84265	1328.35095	-729.79578	1600.63611	1457.91125	-726.87061	1599.64465	1387.06018	-736.63599	1448.66956	1401.99646	-795.83234	1123.12927	1393.80933	-632.99799	1362.76331	1391.53906	-608.18823	1185.68701	1462.72717	-826.18109	1286.97632	1230.12769	-677.90424	1395.86670	1154.03967	-639.66974	1200.65125	1137.02087	-607.07367	1092.65442	1118.82544	-505.36227	981.80212	1165.11487	-391.12460	928.08813	1129.00159	-434.49908	885.77283	1129.32861	-351.83289	849.34937	1551.58899	-683.84784	1402.67285	1639.57581	-760.77722	1217.35876	1653.72705	-775.05023	1095.84045	1674.23804	-784.65027	976.18353	1650.43445	-751.73383	827.45947	1686.02429	-807.38208	839.96967	1691.46741	-787.12024	758.19513	1297.54565	-625.45197	952.49548	1519.04675	-624.91583	965.08661	1328.75464	-782.33228	987.48859	1497.03601	-775.78937	988.91663	1253.08130	-730.39258	645.35248	1278.31018	-763.61920	483.82468	1292.09546	-846.92474	238.85405	1346.22998	-879.72058	71.47924	1391.95789	-922.50623	61.22542	1343.42700	-739.46643	39.38434	1590.62573	-610.78442	639.85498	1566.67700	-559.22797	524.58081	1563.19165	-564.16211	263.30875	1522.96509	-544.99725	77.93473	1471.68762	-573.55939	52.66723	1544.31421	-394.11804	48.31628	1384.01770	-692.49133	1694.38770																					 
